<?xml version="1.0" encoding="UTF-8"?>
<!DOCTYPE svg PUBLIC "-//W3C//DTD SVG 1.1//EN" "http://www.w3.org/Graphics/SVG/1.1/DTD/svg11.dtd">
<!-- Creator: CorelDRAW 2021 (64 Bit) -->
<svg xmlns="http://www.w3.org/2000/svg" xml:space="preserve" width="21.6953mm" height="20.3001mm" version="1.1" style="shape-rendering:geometricPrecision; text-rendering:geometricPrecision; image-rendering:optimizeQuality; fill-rule:evenodd; clip-rule:evenodd"
viewBox="0 0 1261.17 1180.06"
 xmlns:xlink="http://www.w3.org/1999/xlink"
 xmlns:xodm="http://www.corel.com/coreldraw/odm/2003">
 <defs>
  <style type="text/css">
   <![CDATA[
    .fil0 {fill:#4EB8E6}
   ]]>
  </style>
 </defs>
 <g id="Camada_x0020_1">
  <metadata id="CorelCorpID_0Corel-Layer"/>
  <path class="fil0" d="M914.08 1180.06c49.57,0 96.09,-10.38 139.92,-31.52 137.99,-69.95 207.17,-166.05 207.17,-288.28l0 -103.79c0,-38.05 -4.6,-68.03 -13.45,-89.94 -65.35,-162.21 -181.05,-243.32 -347.1,-243.32l-540.44 0 0 -85.33 553.9 0c49.57,0 96.09,-10.76 139.92,-31.51 137.99,-69.96 207.17,-166.06 207.17,-288.3l0 -13.83 -4.6 -4.24 -887.55 4.24 -8.84 0c-43.44,0 -76.49,4.6 -99.17,13.83 -174.13,61.5 -261.01,167.98 -261.01,319.81l0 81.1c0,56.13 10.39,104.17 31.52,144.15 76.49,131.85 181.43,197.96 315.19,197.96l553.91 0 0 81.1 -896.39 0 -4.24 4.62c0,36.52 5.78,72.65 17.7,108.01 73.04,150.3 182.57,225.25 329.02,225.25l567.36 0z"/>
 </g>
</svg>
